<mxfile host="app.diagrams.net" modified="2021-06-04T05:36:12.181Z" agent="5.0 (Macintosh; Intel Mac OS X 10_15_7) AppleWebKit/605.1.15 (KHTML, like Gecko) Version/14.1.1 Safari/605.1.15" etag="B6OrObTWPQuMtHiLuX_t" version="14.7.4" type="github">
  <diagram id="_wbJIc1c088jrpUFfp03" name="Page-1">
    <mxGraphModel dx="1426" dy="853" grid="1" gridSize="10" guides="1" tooltips="1" connect="1" arrows="1" fold="1" page="1" pageScale="1" pageWidth="827" pageHeight="1169" math="0" shadow="0">
      <root>
        <mxCell id="0" />
        <mxCell id="1" parent="0" />
        <mxCell id="wFGHiCNTVyRwfUwmVPfo-52" value="" style="rounded=0;whiteSpace=wrap;html=1;rotation=0;strokeWidth=2;strokeColor=#3333FF;" parent="1" vertex="1">
          <mxGeometry x="370" y="610" width="670" height="520" as="geometry" />
        </mxCell>
        <mxCell id="wFGHiCNTVyRwfUwmVPfo-1" value="Master1" style="swimlane;fontStyle=0;childLayout=stackLayout;horizontal=1;startSize=26;fillColor=#1ba1e2;horizontalStack=0;resizeParent=1;resizeParentMax=0;resizeLast=0;collapsible=1;marginBottom=0;strokeColor=#006EAF;fontColor=#ffffff;" parent="1" vertex="1">
          <mxGeometry x="450" y="650" width="140" height="130" as="geometry" />
        </mxCell>
        <mxCell id="wFGHiCNTVyRwfUwmVPfo-2" value="API Server" style="text;strokeColor=#6c8ebf;fillColor=#dae8fc;align=left;verticalAlign=top;spacingLeft=4;spacingRight=4;overflow=hidden;rotatable=0;points=[[0,0.5],[1,0.5]];portConstraint=eastwest;" parent="wFGHiCNTVyRwfUwmVPfo-1" vertex="1">
          <mxGeometry y="26" width="140" height="26" as="geometry" />
        </mxCell>
        <mxCell id="wFGHiCNTVyRwfUwmVPfo-4" value="Scheduler" style="text;strokeColor=#6c8ebf;fillColor=#dae8fc;align=left;verticalAlign=top;spacingLeft=4;spacingRight=4;overflow=hidden;rotatable=0;points=[[0,0.5],[1,0.5]];portConstraint=eastwest;" parent="wFGHiCNTVyRwfUwmVPfo-1" vertex="1">
          <mxGeometry y="52" width="140" height="26" as="geometry" />
        </mxCell>
        <mxCell id="wFGHiCNTVyRwfUwmVPfo-6" value="Controller" style="text;strokeColor=#6c8ebf;fillColor=#dae8fc;align=left;verticalAlign=top;spacingLeft=4;spacingRight=4;overflow=hidden;rotatable=0;points=[[0,0.5],[1,0.5]];portConstraint=eastwest;" parent="wFGHiCNTVyRwfUwmVPfo-1" vertex="1">
          <mxGeometry y="78" width="140" height="26" as="geometry" />
        </mxCell>
        <mxCell id="wFGHiCNTVyRwfUwmVPfo-7" value="ETCD" style="text;strokeColor=#6c8ebf;fillColor=#dae8fc;align=left;verticalAlign=top;spacingLeft=4;spacingRight=4;overflow=hidden;rotatable=0;points=[[0,0.5],[1,0.5]];portConstraint=eastwest;" parent="wFGHiCNTVyRwfUwmVPfo-1" vertex="1">
          <mxGeometry y="104" width="140" height="26" as="geometry" />
        </mxCell>
        <mxCell id="wFGHiCNTVyRwfUwmVPfo-8" value="Master2" style="swimlane;fontStyle=0;childLayout=stackLayout;horizontal=1;startSize=26;fillColor=#1ba1e2;horizontalStack=0;resizeParent=1;resizeParentMax=0;resizeLast=0;collapsible=1;marginBottom=0;strokeColor=#006EAF;fontColor=#ffffff;" parent="1" vertex="1">
          <mxGeometry x="450" y="802" width="140" height="130" as="geometry" />
        </mxCell>
        <mxCell id="wFGHiCNTVyRwfUwmVPfo-9" value="API Server" style="text;strokeColor=#6c8ebf;fillColor=#dae8fc;align=left;verticalAlign=top;spacingLeft=4;spacingRight=4;overflow=hidden;rotatable=0;points=[[0,0.5],[1,0.5]];portConstraint=eastwest;" parent="wFGHiCNTVyRwfUwmVPfo-8" vertex="1">
          <mxGeometry y="26" width="140" height="26" as="geometry" />
        </mxCell>
        <mxCell id="wFGHiCNTVyRwfUwmVPfo-10" value="Scheduler" style="text;strokeColor=#6c8ebf;fillColor=#dae8fc;align=left;verticalAlign=top;spacingLeft=4;spacingRight=4;overflow=hidden;rotatable=0;points=[[0,0.5],[1,0.5]];portConstraint=eastwest;" parent="wFGHiCNTVyRwfUwmVPfo-8" vertex="1">
          <mxGeometry y="52" width="140" height="26" as="geometry" />
        </mxCell>
        <mxCell id="wFGHiCNTVyRwfUwmVPfo-11" value="Controller" style="text;strokeColor=#6c8ebf;fillColor=#dae8fc;align=left;verticalAlign=top;spacingLeft=4;spacingRight=4;overflow=hidden;rotatable=0;points=[[0,0.5],[1,0.5]];portConstraint=eastwest;" parent="wFGHiCNTVyRwfUwmVPfo-8" vertex="1">
          <mxGeometry y="78" width="140" height="26" as="geometry" />
        </mxCell>
        <mxCell id="wFGHiCNTVyRwfUwmVPfo-12" value="ETCD" style="text;strokeColor=#6c8ebf;fillColor=#dae8fc;align=left;verticalAlign=top;spacingLeft=4;spacingRight=4;overflow=hidden;rotatable=0;points=[[0,0.5],[1,0.5]];portConstraint=eastwest;" parent="wFGHiCNTVyRwfUwmVPfo-8" vertex="1">
          <mxGeometry y="104" width="140" height="26" as="geometry" />
        </mxCell>
        <mxCell id="wFGHiCNTVyRwfUwmVPfo-13" value="Master3" style="swimlane;fontStyle=0;childLayout=stackLayout;horizontal=1;startSize=26;fillColor=#1ba1e2;horizontalStack=0;resizeParent=1;resizeParentMax=0;resizeLast=0;collapsible=1;marginBottom=0;strokeColor=#006EAF;fontColor=#ffffff;" parent="1" vertex="1">
          <mxGeometry x="450" y="960" width="140" height="130" as="geometry" />
        </mxCell>
        <mxCell id="wFGHiCNTVyRwfUwmVPfo-14" value="API Server" style="text;strokeColor=#6c8ebf;fillColor=#dae8fc;align=left;verticalAlign=top;spacingLeft=4;spacingRight=4;overflow=hidden;rotatable=0;points=[[0,0.5],[1,0.5]];portConstraint=eastwest;" parent="wFGHiCNTVyRwfUwmVPfo-13" vertex="1">
          <mxGeometry y="26" width="140" height="26" as="geometry" />
        </mxCell>
        <mxCell id="wFGHiCNTVyRwfUwmVPfo-15" value="Scheduler" style="text;strokeColor=#6c8ebf;fillColor=#dae8fc;align=left;verticalAlign=top;spacingLeft=4;spacingRight=4;overflow=hidden;rotatable=0;points=[[0,0.5],[1,0.5]];portConstraint=eastwest;" parent="wFGHiCNTVyRwfUwmVPfo-13" vertex="1">
          <mxGeometry y="52" width="140" height="26" as="geometry" />
        </mxCell>
        <mxCell id="wFGHiCNTVyRwfUwmVPfo-16" value="Controller" style="text;strokeColor=#6c8ebf;fillColor=#dae8fc;align=left;verticalAlign=top;spacingLeft=4;spacingRight=4;overflow=hidden;rotatable=0;points=[[0,0.5],[1,0.5]];portConstraint=eastwest;" parent="wFGHiCNTVyRwfUwmVPfo-13" vertex="1">
          <mxGeometry y="78" width="140" height="26" as="geometry" />
        </mxCell>
        <mxCell id="wFGHiCNTVyRwfUwmVPfo-17" value="ETCD" style="text;strokeColor=#6c8ebf;fillColor=#dae8fc;align=left;verticalAlign=top;spacingLeft=4;spacingRight=4;overflow=hidden;rotatable=0;points=[[0,0.5],[1,0.5]];portConstraint=eastwest;" parent="wFGHiCNTVyRwfUwmVPfo-13" vertex="1">
          <mxGeometry y="104" width="140" height="26" as="geometry" />
        </mxCell>
        <mxCell id="wFGHiCNTVyRwfUwmVPfo-19" value="Node" style="swimlane;fontStyle=0;childLayout=stackLayout;horizontal=1;startSize=26;horizontalStack=0;resizeParent=1;resizeParentMax=0;resizeLast=0;collapsible=1;marginBottom=0;fillColor=#d5e8d4;strokeColor=#82b366;" parent="1" vertex="1">
          <mxGeometry x="640" y="650" width="140" height="52" as="geometry" />
        </mxCell>
        <mxCell id="wFGHiCNTVyRwfUwmVPfo-20" value="Traefik-ingress" style="text;strokeColor=none;fillColor=none;align=left;verticalAlign=top;spacingLeft=4;spacingRight=4;overflow=hidden;rotatable=0;points=[[0,0.5],[1,0.5]];portConstraint=eastwest;" parent="wFGHiCNTVyRwfUwmVPfo-19" vertex="1">
          <mxGeometry y="26" width="140" height="26" as="geometry" />
        </mxCell>
        <mxCell id="wFGHiCNTVyRwfUwmVPfo-27" value="Node" style="swimlane;fontStyle=0;childLayout=stackLayout;horizontal=1;startSize=26;horizontalStack=0;resizeParent=1;resizeParentMax=0;resizeLast=0;collapsible=1;marginBottom=0;fillColor=#d5e8d4;strokeColor=#82b366;" parent="1" vertex="1">
          <mxGeometry x="827" y="650" width="140" height="52" as="geometry" />
        </mxCell>
        <mxCell id="wFGHiCNTVyRwfUwmVPfo-28" value="Traefik-ingress" style="text;strokeColor=none;fillColor=none;align=left;verticalAlign=top;spacingLeft=4;spacingRight=4;overflow=hidden;rotatable=0;points=[[0,0.5],[1,0.5]];portConstraint=eastwest;" parent="wFGHiCNTVyRwfUwmVPfo-27" vertex="1">
          <mxGeometry y="26" width="140" height="26" as="geometry" />
        </mxCell>
        <mxCell id="wFGHiCNTVyRwfUwmVPfo-29" value="Node" style="swimlane;fontStyle=0;childLayout=stackLayout;horizontal=1;startSize=26;horizontalStack=0;resizeParent=1;resizeParentMax=0;resizeLast=0;collapsible=1;marginBottom=0;fillColor=#d5e8d4;strokeColor=#82b366;" parent="1" vertex="1">
          <mxGeometry x="827" y="740" width="140" height="104" as="geometry" />
        </mxCell>
        <mxCell id="wFGHiCNTVyRwfUwmVPfo-30" value="Pod1" style="text;strokeColor=none;fillColor=none;align=left;verticalAlign=top;spacingLeft=4;spacingRight=4;overflow=hidden;rotatable=0;points=[[0,0.5],[1,0.5]];portConstraint=eastwest;" parent="wFGHiCNTVyRwfUwmVPfo-29" vertex="1">
          <mxGeometry y="26" width="140" height="26" as="geometry" />
        </mxCell>
        <mxCell id="wFGHiCNTVyRwfUwmVPfo-33" value="Coredns" style="text;strokeColor=none;fillColor=none;align=left;verticalAlign=top;spacingLeft=4;spacingRight=4;overflow=hidden;rotatable=0;points=[[0,0.5],[1,0.5]];portConstraint=eastwest;" parent="wFGHiCNTVyRwfUwmVPfo-29" vertex="1">
          <mxGeometry y="52" width="140" height="26" as="geometry" />
        </mxCell>
        <mxCell id="wFGHiCNTVyRwfUwmVPfo-64" value="Pod2" style="text;strokeColor=none;fillColor=none;align=left;verticalAlign=top;spacingLeft=4;spacingRight=4;overflow=hidden;rotatable=0;points=[[0,0.5],[1,0.5]];portConstraint=eastwest;" parent="wFGHiCNTVyRwfUwmVPfo-29" vertex="1">
          <mxGeometry y="78" width="140" height="26" as="geometry" />
        </mxCell>
        <mxCell id="wFGHiCNTVyRwfUwmVPfo-34" value="Node" style="swimlane;fontStyle=0;childLayout=stackLayout;horizontal=1;startSize=26;horizontalStack=0;resizeParent=1;resizeParentMax=0;resizeLast=0;collapsible=1;marginBottom=0;fillColor=#d5e8d4;strokeColor=#82b366;" parent="1" vertex="1">
          <mxGeometry x="827" y="870" width="140" height="104" as="geometry" />
        </mxCell>
        <mxCell id="wFGHiCNTVyRwfUwmVPfo-35" value="Pod1" style="text;strokeColor=none;fillColor=none;align=left;verticalAlign=top;spacingLeft=4;spacingRight=4;overflow=hidden;rotatable=0;points=[[0,0.5],[1,0.5]];portConstraint=eastwest;" parent="wFGHiCNTVyRwfUwmVPfo-34" vertex="1">
          <mxGeometry y="26" width="140" height="26" as="geometry" />
        </mxCell>
        <mxCell id="wFGHiCNTVyRwfUwmVPfo-36" value="Coredns" style="text;strokeColor=none;fillColor=none;align=left;verticalAlign=top;spacingLeft=4;spacingRight=4;overflow=hidden;rotatable=0;points=[[0,0.5],[1,0.5]];portConstraint=eastwest;" parent="wFGHiCNTVyRwfUwmVPfo-34" vertex="1">
          <mxGeometry y="52" width="140" height="26" as="geometry" />
        </mxCell>
        <mxCell id="wFGHiCNTVyRwfUwmVPfo-68" value="Pod2..." style="text;strokeColor=none;fillColor=none;align=left;verticalAlign=top;spacingLeft=4;spacingRight=4;overflow=hidden;rotatable=0;points=[[0,0.5],[1,0.5]];portConstraint=eastwest;" parent="wFGHiCNTVyRwfUwmVPfo-34" vertex="1">
          <mxGeometry y="78" width="140" height="26" as="geometry" />
        </mxCell>
        <mxCell id="wFGHiCNTVyRwfUwmVPfo-37" value="Node" style="swimlane;fontStyle=0;childLayout=stackLayout;horizontal=1;startSize=26;horizontalStack=0;resizeParent=1;resizeParentMax=0;resizeLast=0;collapsible=1;marginBottom=0;fillColor=#d5e8d4;strokeColor=#82b366;" parent="1" vertex="1">
          <mxGeometry x="827" y="1000" width="140" height="78" as="geometry" />
        </mxCell>
        <mxCell id="wFGHiCNTVyRwfUwmVPfo-38" value="Pod1" style="text;strokeColor=none;fillColor=none;align=left;verticalAlign=top;spacingLeft=4;spacingRight=4;overflow=hidden;rotatable=0;points=[[0,0.5],[1,0.5]];portConstraint=eastwest;" parent="wFGHiCNTVyRwfUwmVPfo-37" vertex="1">
          <mxGeometry y="26" width="140" height="26" as="geometry" />
        </mxCell>
        <mxCell id="wFGHiCNTVyRwfUwmVPfo-39" value="Pod2..." style="text;strokeColor=none;fillColor=none;align=left;verticalAlign=top;spacingLeft=4;spacingRight=4;overflow=hidden;rotatable=0;points=[[0,0.5],[1,0.5]];portConstraint=eastwest;" parent="wFGHiCNTVyRwfUwmVPfo-37" vertex="1">
          <mxGeometry y="52" width="140" height="26" as="geometry" />
        </mxCell>
        <mxCell id="wFGHiCNTVyRwfUwmVPfo-41" value="NFS &amp;nbsp;Server" style="rounded=1;whiteSpace=wrap;html=1;gradientColor=#b3b3b3;fillColor=#f5f5f5;strokeColor=#666666;" parent="1" vertex="1">
          <mxGeometry x="652" y="740" width="106" height="40" as="geometry" />
        </mxCell>
        <mxCell id="wFGHiCNTVyRwfUwmVPfo-44" style="edgeStyle=orthogonalEdgeStyle;rounded=0;orthogonalLoop=1;jettySize=auto;html=1;" parent="1" source="wFGHiCNTVyRwfUwmVPfo-42" target="wFGHiCNTVyRwfUwmVPfo-6" edge="1">
          <mxGeometry relative="1" as="geometry">
            <Array as="points">
              <mxPoint x="350" y="810" />
              <mxPoint x="350" y="741" />
            </Array>
          </mxGeometry>
        </mxCell>
        <mxCell id="wFGHiCNTVyRwfUwmVPfo-45" style="edgeStyle=orthogonalEdgeStyle;rounded=0;orthogonalLoop=1;jettySize=auto;html=1;entryX=0;entryY=0.5;entryDx=0;entryDy=0;" parent="1" source="wFGHiCNTVyRwfUwmVPfo-42" target="wFGHiCNTVyRwfUwmVPfo-11" edge="1">
          <mxGeometry relative="1" as="geometry">
            <Array as="points">
              <mxPoint x="350" y="810" />
              <mxPoint x="350" y="893" />
            </Array>
          </mxGeometry>
        </mxCell>
        <mxCell id="wFGHiCNTVyRwfUwmVPfo-50" style="edgeStyle=orthogonalEdgeStyle;rounded=0;orthogonalLoop=1;jettySize=auto;html=1;entryX=0;entryY=0.5;entryDx=0;entryDy=0;" parent="1" source="wFGHiCNTVyRwfUwmVPfo-42" target="wFGHiCNTVyRwfUwmVPfo-15" edge="1">
          <mxGeometry relative="1" as="geometry">
            <Array as="points">
              <mxPoint x="350" y="810" />
              <mxPoint x="350" y="1025" />
            </Array>
          </mxGeometry>
        </mxCell>
        <mxCell id="wFGHiCNTVyRwfUwmVPfo-42" value="Rancher" style="rounded=1;whiteSpace=wrap;html=1;fillColor=#60a917;strokeColor=#2D7600;fontColor=#ffffff;" parent="1" vertex="1">
          <mxGeometry x="180" y="780" width="120" height="60" as="geometry" />
        </mxCell>
        <mxCell id="wFGHiCNTVyRwfUwmVPfo-47" style="edgeStyle=orthogonalEdgeStyle;rounded=0;orthogonalLoop=1;jettySize=auto;html=1;" parent="1" source="wFGHiCNTVyRwfUwmVPfo-43" target="wFGHiCNTVyRwfUwmVPfo-6" edge="1">
          <mxGeometry relative="1" as="geometry">
            <Array as="points">
              <mxPoint x="350" y="909" />
              <mxPoint x="350" y="741" />
            </Array>
          </mxGeometry>
        </mxCell>
        <mxCell id="wFGHiCNTVyRwfUwmVPfo-48" style="edgeStyle=orthogonalEdgeStyle;rounded=0;orthogonalLoop=1;jettySize=auto;html=1;entryX=0;entryY=0.5;entryDx=0;entryDy=0;" parent="1" source="wFGHiCNTVyRwfUwmVPfo-43" target="wFGHiCNTVyRwfUwmVPfo-11" edge="1">
          <mxGeometry relative="1" as="geometry">
            <Array as="points">
              <mxPoint x="350" y="909" />
              <mxPoint x="350" y="893" />
            </Array>
          </mxGeometry>
        </mxCell>
        <mxCell id="wFGHiCNTVyRwfUwmVPfo-49" style="edgeStyle=orthogonalEdgeStyle;rounded=0;orthogonalLoop=1;jettySize=auto;html=1;entryX=0;entryY=0.5;entryDx=0;entryDy=0;" parent="1" source="wFGHiCNTVyRwfUwmVPfo-43" target="wFGHiCNTVyRwfUwmVPfo-15" edge="1">
          <mxGeometry relative="1" as="geometry">
            <Array as="points">
              <mxPoint x="350" y="909" />
              <mxPoint x="350" y="1025" />
            </Array>
          </mxGeometry>
        </mxCell>
        <mxCell id="wFGHiCNTVyRwfUwmVPfo-43" value="kubectl" style="rounded=1;whiteSpace=wrap;html=1;" parent="1" vertex="1">
          <mxGeometry x="180" y="879" width="120" height="60" as="geometry" />
        </mxCell>
        <mxCell id="wFGHiCNTVyRwfUwmVPfo-57" style="edgeStyle=orthogonalEdgeStyle;rounded=0;orthogonalLoop=1;jettySize=auto;html=1;startArrow=classic;startFill=1;" parent="1" source="wFGHiCNTVyRwfUwmVPfo-54" target="wFGHiCNTVyRwfUwmVPfo-19" edge="1">
          <mxGeometry relative="1" as="geometry">
            <Array as="points">
              <mxPoint x="710" y="560" />
            </Array>
          </mxGeometry>
        </mxCell>
        <mxCell id="wFGHiCNTVyRwfUwmVPfo-58" style="edgeStyle=orthogonalEdgeStyle;rounded=0;orthogonalLoop=1;jettySize=auto;html=1;startArrow=classic;startFill=1;" parent="1" source="wFGHiCNTVyRwfUwmVPfo-54" target="wFGHiCNTVyRwfUwmVPfo-27" edge="1">
          <mxGeometry relative="1" as="geometry">
            <Array as="points">
              <mxPoint x="897" y="560" />
            </Array>
          </mxGeometry>
        </mxCell>
        <mxCell id="wFGHiCNTVyRwfUwmVPfo-54" value="Load blance" style="aspect=fixed;pointerEvents=1;shadow=0;dashed=0;html=1;strokeColor=none;labelPosition=center;verticalLabelPosition=bottom;verticalAlign=top;align=center;fillColor=#00188D;shape=mxgraph.azure.load_balancer_generic" parent="1" vertex="1">
          <mxGeometry x="780" y="530" width="37" height="50" as="geometry" />
        </mxCell>
        <mxCell id="wFGHiCNTVyRwfUwmVPfo-56" style="edgeStyle=orthogonalEdgeStyle;rounded=0;orthogonalLoop=1;jettySize=auto;html=1;entryX=0.5;entryY=0;entryDx=0;entryDy=0;entryPerimeter=0;" parent="1" source="wFGHiCNTVyRwfUwmVPfo-59" target="wFGHiCNTVyRwfUwmVPfo-54" edge="1">
          <mxGeometry relative="1" as="geometry">
            <mxPoint x="808.5" y="371" as="sourcePoint" />
            <Array as="points" />
          </mxGeometry>
        </mxCell>
        <mxCell id="wFGHiCNTVyRwfUwmVPfo-78" value="Https&lt;br style=&quot;font-size: 14px;&quot;&gt;" style="edgeLabel;html=1;align=center;verticalAlign=middle;resizable=0;points=[];fontSize=14;fontColor=#00CC00;" parent="wFGHiCNTVyRwfUwmVPfo-56" vertex="1" connectable="0">
          <mxGeometry x="-0.1429" y="1" relative="1" as="geometry">
            <mxPoint x="-1" y="35" as="offset" />
          </mxGeometry>
        </mxCell>
        <mxCell id="wFGHiCNTVyRwfUwmVPfo-59" value="newwork" style="line;strokeWidth=4;html=1;perimeter=backbonePerimeter;points=[];outlineConnect=0;fontColor=#000000;" parent="1" vertex="1">
          <mxGeometry x="513.5" y="410" width="570" height="10" as="geometry" />
        </mxCell>
        <mxCell id="wFGHiCNTVyRwfUwmVPfo-60" value="" style="outlineConnect=0;fontColor=#232F3E;gradientColor=none;fillColor=#3334B9;strokeColor=none;dashed=0;verticalLabelPosition=bottom;verticalAlign=top;align=center;html=1;fontSize=12;fontStyle=0;aspect=fixed;pointerEvents=1;shape=mxgraph.aws4.rds_mysql_instance;" parent="1" vertex="1">
          <mxGeometry x="1098.5" y="920" width="48" height="48" as="geometry" />
        </mxCell>
        <mxCell id="wFGHiCNTVyRwfUwmVPfo-61" value="" style="aspect=fixed;html=1;points=[];align=center;image;fontSize=12;image=img/lib/mscae/Cache_Redis_Product.svg;fontColor=#000000;" parent="1" vertex="1">
          <mxGeometry x="1097.5" y="998" width="50" height="42" as="geometry" />
        </mxCell>
        <mxCell id="wFGHiCNTVyRwfUwmVPfo-62" value="" style="outlineConnect=0;fontColor=#232F3E;gradientColor=none;fillColor=#3334B9;strokeColor=none;dashed=0;verticalLabelPosition=bottom;verticalAlign=top;align=center;html=1;fontSize=12;fontStyle=0;aspect=fixed;pointerEvents=1;shape=mxgraph.aws4.rds_oracle_instance;" parent="1" vertex="1">
          <mxGeometry x="1098.5" y="1060" width="50" height="50" as="geometry" />
        </mxCell>
        <mxCell id="wFGHiCNTVyRwfUwmVPfo-63" value="MQ" style="points=[[0,0,0],[0.25,0,0],[0.5,0,0],[0.75,0,0],[1,0,0],[0,1,0],[0.25,1,0],[0.5,1,0],[0.75,1,0],[1,1,0],[0,0.25,0],[0,0.5,0],[0,0.75,0],[1,0.25,0],[1,0.5,0],[1,0.75,0]];outlineConnect=0;fontColor=#232F3E;gradientColor=#F34482;gradientDirection=north;fillColor=#BC1356;strokeColor=#ffffff;dashed=0;verticalLabelPosition=bottom;verticalAlign=top;align=center;html=1;fontSize=12;fontStyle=0;aspect=fixed;shape=mxgraph.aws4.resourceIcon;resIcon=mxgraph.aws4.mq;" parent="1" vertex="1">
          <mxGeometry x="1093.5" y="830" width="53" height="53" as="geometry" />
        </mxCell>
        <mxCell id="wFGHiCNTVyRwfUwmVPfo-69" value="Node" style="swimlane;fontStyle=0;childLayout=stackLayout;horizontal=1;startSize=26;horizontalStack=0;resizeParent=1;resizeParentMax=0;resizeLast=0;collapsible=1;marginBottom=0;fillColor=#d5e8d4;strokeColor=#82b366;" parent="1" vertex="1">
          <mxGeometry x="640" y="828" width="140" height="104" as="geometry" />
        </mxCell>
        <mxCell id="wFGHiCNTVyRwfUwmVPfo-70" value="Pod1" style="text;strokeColor=none;fillColor=none;align=left;verticalAlign=top;spacingLeft=4;spacingRight=4;overflow=hidden;rotatable=0;points=[[0,0.5],[1,0.5]];portConstraint=eastwest;" parent="wFGHiCNTVyRwfUwmVPfo-69" vertex="1">
          <mxGeometry y="26" width="140" height="26" as="geometry" />
        </mxCell>
        <mxCell id="wFGHiCNTVyRwfUwmVPfo-71" value="Prometheus" style="text;strokeColor=none;fillColor=none;align=left;verticalAlign=top;spacingLeft=4;spacingRight=4;overflow=hidden;rotatable=0;points=[[0,0.5],[1,0.5]];portConstraint=eastwest;" parent="wFGHiCNTVyRwfUwmVPfo-69" vertex="1">
          <mxGeometry y="52" width="140" height="26" as="geometry" />
        </mxCell>
        <mxCell id="wFGHiCNTVyRwfUwmVPfo-72" value="Grafana" style="text;strokeColor=none;fillColor=none;align=left;verticalAlign=top;spacingLeft=4;spacingRight=4;overflow=hidden;rotatable=0;points=[[0,0.5],[1,0.5]];portConstraint=eastwest;" parent="wFGHiCNTVyRwfUwmVPfo-69" vertex="1">
          <mxGeometry y="78" width="140" height="26" as="geometry" />
        </mxCell>
        <mxCell id="wFGHiCNTVyRwfUwmVPfo-73" value="Node" style="swimlane;fontStyle=0;childLayout=stackLayout;horizontal=1;startSize=26;horizontalStack=0;resizeParent=1;resizeParentMax=0;resizeLast=0;collapsible=1;marginBottom=0;fillColor=#d5e8d4;strokeColor=#82b366;" parent="1" vertex="1">
          <mxGeometry x="640" y="983" width="140" height="104" as="geometry" />
        </mxCell>
        <mxCell id="wFGHiCNTVyRwfUwmVPfo-74" value="Pod1" style="text;strokeColor=none;fillColor=none;align=left;verticalAlign=top;spacingLeft=4;spacingRight=4;overflow=hidden;rotatable=0;points=[[0,0.5],[1,0.5]];portConstraint=eastwest;" parent="wFGHiCNTVyRwfUwmVPfo-73" vertex="1">
          <mxGeometry y="26" width="140" height="26" as="geometry" />
        </mxCell>
        <mxCell id="wFGHiCNTVyRwfUwmVPfo-75" value="Loki" style="text;strokeColor=none;fillColor=none;align=left;verticalAlign=top;spacingLeft=4;spacingRight=4;overflow=hidden;rotatable=0;points=[[0,0.5],[1,0.5]];portConstraint=eastwest;" parent="wFGHiCNTVyRwfUwmVPfo-73" vertex="1">
          <mxGeometry y="52" width="140" height="26" as="geometry" />
        </mxCell>
        <mxCell id="wFGHiCNTVyRwfUwmVPfo-76" value="Pod2..." style="text;strokeColor=none;fillColor=none;align=left;verticalAlign=top;spacingLeft=4;spacingRight=4;overflow=hidden;rotatable=0;points=[[0,0.5],[1,0.5]];portConstraint=eastwest;" parent="wFGHiCNTVyRwfUwmVPfo-73" vertex="1">
          <mxGeometry y="78" width="140" height="26" as="geometry" />
        </mxCell>
        <mxCell id="wFGHiCNTVyRwfUwmVPfo-80" value="Docker registry" style="shape=image;verticalLabelPosition=bottom;labelBackgroundColor=#ffffff;verticalAlign=top;aspect=fixed;imageAspect=0;image=https://goharbor.io/img/logos/harbor-horizontal-color.png;" parent="1" vertex="1">
          <mxGeometry x="1050" y="610" width="175.68" height="50" as="geometry" />
        </mxCell>
        <mxCell id="o8y3W0bxB4i506m4vsdM-1" value="Kubernetes Cluster" style="text;html=1;align=center;verticalAlign=middle;whiteSpace=wrap;rounded=0;fontSize=14;fillColor=#bac8d3;strokeColor=#23445d;" vertex="1" parent="1">
          <mxGeometry x="370" y="610" width="136" height="20" as="geometry" />
        </mxCell>
      </root>
    </mxGraphModel>
  </diagram>
</mxfile>
